<svg version="1.1" id="Layer_1" xmlns="http://www.w3.org/2000/svg" xmlns:xlink="http://www.w3.org/1999/xlink" x="0px" y="0px" viewBox="0 0 100 100" enable-background="new 0 0 100 100" xml:space="preserve">
    <path fill="#FFFFFF" d="M82.75,95V17.53c0-0.55-0.45-1-1-1H65.45v-2.99c0-0.55-0.45-1-1-1h-8.69v-2.8c0-3.16-2.57-5.74-5.79-5.74
        c-3.16,0-5.74,2.57-5.74,5.74v2.8h-8.69c-0.55,0-1,0.45-1,1v2.99H18.25c-0.55,0-1,0.45-1,1V95c0,0.55,0.45,1,1,1h63.51
        C82.31,96,82.75,95.55,82.75,95z M46.23,9.74c0-2.06,1.68-3.74,3.79-3.74c2.06,0,3.74,1.68,3.74,3.74v2.8h-7.53V9.74z M36.54,22.12
        v-4.6v-2.99h8.69h9.53h8.69v2.99v4.6v2.08H36.54V22.12z M35.54,26.21h28.91c0.55,0,1-0.45,1-1v-2.08h10.71V89.4H23.84V23.12h10.69
        v2.08C34.54,25.76,34.98,26.21,35.54,26.21z M80.75,94H19.25V18.53h15.29v2.6H22.84c-0.55,0-1,0.45-1,1V90.4c0,0.55,0.45,1,1,1
        h54.31c0.55,0,1-0.45,1-1V22.12c0-0.55-0.45-1-1-1H65.45v-2.6h15.31V94z"></path>
    <path fill="#FFFFFF" d="M29.56,37.07c0,2.8,2.28,5.07,5.07,5.07s5.07-2.27,5.07-5.07S37.43,32,34.64,32S29.56,34.28,29.56,37.07z M34.64,34
        c1.69,0,3.07,1.38,3.07,3.07s-1.38,3.07-3.07,3.07c-1.69,0-3.07-1.38-3.07-3.07S32.94,34,34.64,34z"></path>
    <path fill="#FFFFFF" d="M49.54,34.65h19.89c0.55,0,1-0.45,1-1s-0.45-1-1-1H49.54c-0.55,0-1,0.45-1,1S48.98,34.65,49.54,34.65z"></path>
    <path fill="#FFFFFF" d="M46.14,41.5h17.57c0.55,0,1-0.45,1-1s-0.45-1-1-1H46.14c-0.55,0-1,0.45-1,1S45.59,41.5,46.14,41.5z"></path>
    <path fill="#FFFFFF" d="M34.64,51.89c-2.8,0-5.07,2.27-5.07,5.07s2.28,5.07,5.07,5.07s5.07-2.28,5.07-5.07S37.43,51.89,34.64,51.89z M34.64,60.03
        c-1.69,0-3.07-1.38-3.07-3.07c0-1.69,1.38-3.07,3.07-3.07c1.69,0,3.07,1.38,3.07,3.07C37.71,58.66,36.33,60.03,34.64,60.03z"></path>
    <path fill="#FFFFFF" d="M69.43,52.54H49.54c-0.55,0-1,0.45-1,1s0.45,1,1,1h19.89c0.55,0,1-0.45,1-1S69.98,52.54,69.43,52.54z"></path>
    <path fill="#FFFFFF" d="M46.14,61.38h17.57c0.55,0,1-0.45,1-1s-0.45-1-1-1H46.14c-0.55,0-1,0.45-1,1S45.59,61.38,46.14,61.38z"></path>
    <path fill="#FFFFFF" d="M34.64,71.78c-2.8,0-5.07,2.28-5.07,5.07s2.28,5.07,5.07,5.07s5.07-2.27,5.07-5.07S37.43,71.78,34.64,71.78z M34.64,79.92
        c-1.69,0-3.07-1.38-3.07-3.07c0-1.69,1.38-3.07,3.07-3.07c1.69,0,3.07,1.38,3.07,3.07C37.71,78.54,36.33,79.92,34.64,79.92z"></path>
    <path fill="#FFFFFF" d="M69.43,72.43H49.54c-0.55,0-1,0.45-1,1s0.45,1,1,1h19.89c0.55,0,1-0.45,1-1S69.98,72.43,69.43,72.43z"></path>
    <path fill="#FFFFFF" d="M46.14,81.27h17.57c0.55,0,1-0.45,1-1s-0.45-1-1-1H46.14c-0.55,0-1,0.45-1,1S45.59,81.27,46.14,81.27z"></path>
    <path fill="#FFFFFF" d="M58.35,18.37H41.64c-0.55,0-1,0.45-1,1s0.45,1,1,1h16.71c0.55,0,1-0.45,1-1S58.9,18.37,58.35,18.37z"></path>
</svg>