<?xml version="1.0" standalone="no"?>
<!DOCTYPE svg PUBLIC "-//W3C//DTD SVG 20010904//EN"
 "http://www.w3.org/TR/2001/REC-SVG-20010904/DTD/svg10.dtd">
<svg version="1.0" xmlns="http://www.w3.org/2000/svg"
 width="64.000000pt" height="64.000000pt" viewBox="0 0 64.000000 64.000000"
 preserveAspectRatio="xMidYMid meet">

<g transform="translate(0.000000,64.000000) scale(0.100000,-0.100000)"
fill="#000000" stroke="none">
<path d="M275 601 c-27 -12 -61 -51 -70 -78 -6 -21 -13 -23 -65 -23 -32 0 -61
-4 -64 -9 -4 -5 -13 -103 -21 -217 -10 -150 -11 -211 -3 -221 15 -19 521 -19
536 0 8 10 7 71 -3 221 -8 114 -17 212 -21 217 -3 5 -32 9 -64 9 -55 0 -60 2
-66 24 -14 58 -103 101 -159 77z m94 -25 c22 -12 51 -52 51 -71 0 -3 -45 -5
-100 -5 -55 0 -100 3 -100 8 1 18 29 56 51 68 31 17 64 17 98 0z m185 -153 c3
-32 8 -101 11 -153 3 -52 8 -121 11 -152 l6 -58 -262 0 -262 0 6 53 c3 28 8
104 11 167 9 180 -14 160 190 160 110 0 175 4 175 10 0 6 -65 10 -175 10 -110
0 -175 4 -175 10 0 6 83 10 229 10 l229 0 6 -57z"/>
<path d="M460 450 c0 -5 14 -10 30 -10 17 0 30 5 30 10 0 6 -13 10 -30 10 -16
0 -30 -4 -30 -10z"/>
<path d="M307 286 c-50 -110 -52 -116 -39 -116 8 0 102 198 102 214 0 3 -4 6
-8 6 -5 0 -30 -47 -55 -104z"/>
<path d="M224 367 c-3 -9 -4 -28 -2 -44 3 -24 7 -28 33 -28 28 0 30 2 30 40 0
36 -3 40 -28 43 -17 2 -29 -2 -33 -11z m46 -32 c0 -16 -6 -25 -15 -25 -9 0
-15 9 -15 25 0 16 6 25 15 25 9 0 15 -9 15 -25z"/>
<path d="M344 257 c-3 -9 -4 -28 -2 -44 3 -24 7 -28 33 -28 28 0 30 2 30 40 0
36 -3 40 -28 43 -17 2 -29 -2 -33 -11z m46 -32 c0 -16 -6 -25 -15 -25 -9 0
-15 9 -15 25 0 16 6 25 15 25 9 0 15 -9 15 -25z"/>
<path d="M80 100 c0 -11 5 -20 10 -20 6 0 10 9 10 20 0 11 -4 20 -10 20 -5 0
-10 -9 -10 -20z"/>
<path d="M130 100 c0 -11 5 -20 10 -20 6 0 10 9 10 20 0 11 -4 20 -10 20 -5 0
-10 -9 -10 -20z"/>
<path d="M180 100 c0 -11 5 -20 10 -20 6 0 10 9 10 20 0 11 -4 20 -10 20 -5 0
-10 -9 -10 -20z"/>
<path d="M230 100 c0 -11 5 -20 10 -20 6 0 10 9 10 20 0 11 -4 20 -10 20 -5 0
-10 -9 -10 -20z"/>
<path d="M280 100 c0 -11 5 -20 10 -20 6 0 10 9 10 20 0 11 -4 20 -10 20 -5 0
-10 -9 -10 -20z"/>
<path d="M340 100 c0 -11 5 -20 10 -20 6 0 10 9 10 20 0 11 -4 20 -10 20 -5 0
-10 -9 -10 -20z"/>
<path d="M390 100 c0 -11 5 -20 10 -20 6 0 10 9 10 20 0 11 -4 20 -10 20 -5 0
-10 -9 -10 -20z"/>
<path d="M440 100 c0 -11 5 -20 10 -20 6 0 10 9 10 20 0 11 -4 20 -10 20 -5 0
-10 -9 -10 -20z"/>
<path d="M490 100 c0 -11 5 -20 10 -20 6 0 10 9 10 20 0 11 -4 20 -10 20 -5 0
-10 -9 -10 -20z"/>
<path d="M540 100 c0 -11 5 -20 10 -20 6 0 10 9 10 20 0 11 -4 20 -10 20 -5 0
-10 -9 -10 -20z"/>
</g>
</svg>
