<?xml version="1.0" standalone="no"?>
<!DOCTYPE svg PUBLIC "-//W3C//DTD SVG 20010904//EN"
 "http://www.w3.org/TR/2001/REC-SVG-20010904/DTD/svg10.dtd">
<svg version="1.0" xmlns="http://www.w3.org/2000/svg"
 width="50.000000pt" height="50.000000pt" viewBox="0 0 50.000000 50.000000"
 preserveAspectRatio="xMidYMid meet">

<g transform="translate(0.000000,50.000000) scale(0.100000,-0.100000)"
fill="#000000" stroke="none">
<path d="M180 415 c-61 -62 -65 -64 -119 -67 -53 -3 -56 -4 -59 -31 -2 -16 3
-36 11 -45 8 -10 25 -53 37 -97 13 -44 28 -86 33 -93 7 -9 50 -12 171 -10
l161 3 30 91 c17 50 36 98 43 107 7 9 12 28 10 44 -3 27 -6 28 -59 31 -54 3
-58 5 -119 67 -36 36 -67 65 -70 65 -3 0 -34 -29 -70 -65z m125 -15 l49 -50
-104 0 -104 0 49 50 c27 28 52 50 55 50 3 0 28 -22 55 -50z m175 -89 c0 -11
-4 -21 -9 -23 -5 -1 -22 -46 -38 -98 l-30 -95 -154 0 -153 0 -30 95 c-16 52
-33 97 -37 98 -5 2 -9 12 -9 23 0 18 10 19 230 19 220 0 230 -1 230 -19z"/>
<path d="M278 223 l-47 -47 -26 24 c-37 35 -44 15 -7 -23 l32 -31 55 54 c52
51 65 70 47 70 -4 0 -28 -21 -54 -47z"/>
</g>
</svg>
